<svg xmlns="http://www.w3.org/2000/svg" width="319.53" height="73.035" viewBox="0 0 319.53 73.035">
  <g id="Capa_2" data-name="Capa 2" transform="translate(0.018 0.039)">
    <g id="Layer_1" data-name="Layer 1" transform="translate(-0.018 -0.039)">
      <path id="Trazado_6794" data-name="Trazado 6794" d="M78.73,56.26S49.68,5.451,49.645,5.423a10.465,10.465,0,0,0-18.383,0S.943,58.025.943,58.15A10.465,10.465,0,0,0,10.459,73H70.288a10.465,10.465,0,0,0,8.42-16.743ZM70.135,65.9H10.661a3.677,3.677,0,0,1-3.691-3.67,3.6,3.6,0,0,1,.349-1.549c0-.049,29.866-51.709,29.88-51.716a3.677,3.677,0,0,1,6.439,0L59.077,35.749H44.427l-4.1-7.221L26.8,51.795H53.713l-2.958-4.925H35.916l3.718-6.648H61.652c6.118,10.6,11.427,19.813,11.427,19.813A3.677,3.677,0,0,1,70.135,65.9Z" transform="translate(0.018 0.039)" fill="#fff"/>
      <path id="Trazado_6795" data-name="Trazado 6795" d="M138.857,20.777v1.612h2.791v2.093h-2.791v1.646h2.951v2.093H136.38V18.67h5.428v2.093Z" transform="translate(-41.224 -5.618)" fill="#fff"/>
      <path id="Trazado_6796" data-name="Trazado 6796" d="M153.332,21.014a2.623,2.623,0,0,0-1.646-.628c-.453,0-1.06.265-1.06.8s.7.774,1.1.907l.628.2c1.332.391,2.358,1.06,2.358,2.6a3.23,3.23,0,0,1-.991,2.567,4.186,4.186,0,0,1-2.707.9,5.9,5.9,0,0,1-3.356-1.088l1.067-2a3.4,3.4,0,0,0,2.2.984c.586,0,1.207-.293,1.207-.963s-.977-.935-1.507-1.088c-1.556-.44-2.581-.844-2.581-2.693a3.1,3.1,0,0,1,3.286-3.2,6.509,6.509,0,0,1,2.986.788Z" transform="translate(-44.634 -5.506)" fill="#fff"/>
      <path id="Trazado_6797" data-name="Trazado 6797" d="M164.948,28.22h-2.477V20.783H160.42V18.69H167v2.093h-2.051Z" transform="translate(-48.493 -5.624)" fill="#fff"/>
      <path id="Trazado_6798" data-name="Trazado 6798" d="M174.307,26.583l-.656,1.66H171l3.67-9.544h2.707l3.593,9.544h-2.644l-.6-1.66Zm1.737-4.932h0l-1.026,3.035h2.093Z" transform="translate(-51.692 -5.627)" fill="#fff"/>
      <path id="Trazado_6799" data-name="Trazado 6799" d="M188.5,28.214V18.67h3.544c1.7,0,2.839.663,2.839,2.484a1.974,1.974,0,0,1-1.053,1.932h0a2.124,2.124,0,0,1,1.946,2.428c0,2-1.709,2.658-3.488,2.658Zm2.484-5.825h.279c.656,0,1.339-.112,1.339-.921s-.774-.921-1.444-.921h-.174Zm0,3.9h.314c.733,0,1.974.035,1.974-1.012s-1.228-1.039-2.037-1.039h-.251Z" transform="translate(-56.983 -5.618)" fill="#fff"/>
      <path id="Trazado_6800" data-name="Trazado 6800" d="M205.277,26.114h2.972v2.093H202.8V18.67h2.477Z" transform="translate(-61.307 -5.618)" fill="#fff"/>
      <path id="Trazado_6801" data-name="Trazado 6801" d="M216.294,20.777v1.612h2.791v2.093h-2.791v1.646h2.944v2.093H213.81V18.67h5.428v2.093Z" transform="translate(-64.636 -5.618)" fill="#fff"/>
      <path id="Trazado_6802" data-name="Trazado 6802" d="M232.406,21.769a2.679,2.679,0,0,0-2.177-1.046,2.511,2.511,0,0,0-2.539,2.644,2.47,2.47,0,0,0,2.581,2.6,2.86,2.86,0,0,0,2.135-1.012v2.972a7.067,7.067,0,0,1-2.191.44,5.309,5.309,0,0,1-3.579-1.4,4.681,4.681,0,0,1-1.528-3.607,5,5,0,0,1,1.4-3.488,5.19,5.19,0,0,1,3.635-1.542,5.867,5.867,0,0,1,2.26.481Z" transform="translate(-68.051 -5.515)" fill="#fff"/>
      <path id="Trazado_6803" data-name="Trazado 6803" d="M242.463,28.214H240V18.67h2.484Z" transform="translate(-72.555 -5.618)" fill="#fff"/>
      <path id="Trazado_6804" data-name="Trazado 6804" d="M248.781,18.67h2.463l1.911,5.114,2.051-5.1h2.47l1.437,9.544h-2.477l-.7-5.49h0l-2.3,5.49h-1l-2.191-5.49h0l-.8,5.49H247.19Z" transform="translate(-74.729 -5.618)" fill="#fff"/>
      <path id="Trazado_6805" data-name="Trazado 6805" d="M270.491,28.214H268V18.67h2.477Z" transform="translate(-81.021 -5.618)" fill="#fff"/>
      <path id="Trazado_6806" data-name="Trazado 6806" d="M278.511,20.777v1.612H281.3v2.093h-2.791v1.646h2.944v2.093H276V18.67h5.428v2.093Z" transform="translate(-83.44 -5.618)" fill="#fff"/>
      <path id="Trazado_6807" data-name="Trazado 6807" d="M288.17,18.67h2.484l4.542,5.811h0V18.67h2.477v9.544H295.2l-4.514-5.825h0v5.846H288.2Z" transform="translate(-87.119 -5.618)" fill="#fff"/>
      <path id="Trazado_6808" data-name="Trazado 6808" d="M309.628,28.22h-2.5V20.783H305.1V18.69h6.579v2.093h-2.051Z" transform="translate(-92.238 -5.624)" fill="#fff"/>
      <path id="Trazado_6809" data-name="Trazado 6809" d="M327.555,23.143a5.281,5.281,0,0,1-10.555,0,5.294,5.294,0,0,1,10.555,0Zm-7.974,0a2.7,2.7,0,1,0,2.7-2.562A2.7,2.7,0,0,0,319.581,23.143Z" transform="translate(-95.837 -5.494)" fill="#fff"/>
      <path id="Trazado_6810" data-name="Trazado 6810" d="M340.679,21.014a2.637,2.637,0,0,0-1.646-.628c-.46,0-1.067.265-1.067.8s.7.774,1.1.907l.635.2c1.326.391,2.351,1.06,2.351,2.6a3.23,3.23,0,0,1-.984,2.567,4.186,4.186,0,0,1-2.707.9A5.888,5.888,0,0,1,335,27.265l1.06-2a3.4,3.4,0,0,0,2.2.984c.579,0,1.2-.293,1.2-.963s-.977-.921-1.5-1.088c-1.556-.44-2.581-.844-2.581-2.693a3.1,3.1,0,0,1,3.293-3.2,6.53,6.53,0,0,1,2.986.788Z" transform="translate(-101.279 -5.506)" fill="#fff"/>
      <path id="Trazado_6811" data-name="Trazado 6811" d="M161.93,51.444c-.063,3.558-.321,6.593-2.491,9.634-2.386,3.328-5.979,4.786-10.053,4.786-7.674,0-13-5.2-13-12.871,0-7.918,5.372-13.123,13.255-13.123,5.009,0,8.888,2.26,10.988,6.823l-6.014,2.518a5.511,5.511,0,0,0-5.267-3.879c-4.186,0-6.335,3.977-6.335,7.674s2.26,7.632,6.432,7.632c2.749,0,4.883-1.4,5.107-4.235h-5.183v-4.96Z" transform="translate(-41.227 -12.028)" fill="#fff"/>
      <path id="Trazado_6812" data-name="Trazado 6812" d="M180.587,61.162l-1.681,4.256H172.18L181.556,41h6.914l9.181,24.417h-6.76l-1.584-4.235Zm4.423-12.613h-.063l-2.616,7.8H187.6Z" transform="translate(-52.048 -12.369)" fill="#fff"/>
      <path id="Trazado_6813" data-name="Trazado 6813" d="M224.31,46.991a6.669,6.669,0,0,0-4.186-1.619c-1.165,0-2.721.7-2.721,2.037s1.716,1.974,2.791,2.33l1.619.481c3.4,1,6.014,2.714,6.014,6.662,0,2.421-.579,4.883-2.518,6.558a10.7,10.7,0,0,1-6.921,2.3,15.055,15.055,0,0,1-8.567-2.791l2.714-5.107a8.723,8.723,0,0,0,5.623,2.518c1.486,0,3.077-.739,3.077-2.456s-2.491-2.393-3.851-2.791c-3.977-1.13-6.593-2.163-6.593-6.886,0-4.939,3.523-8.176,8.407-8.176a16.652,16.652,0,0,1,7.632,2.058Z" transform="translate(-63.429 -12.082)" fill="#fff"/>
      <path id="Trazado_6814" data-name="Trazado 6814" d="M256.309,48.925a6.872,6.872,0,0,0-5.581-2.679A6.418,6.418,0,0,0,244.233,53a6.358,6.358,0,0,0,6.593,6.628,7.283,7.283,0,0,0,5.462-2.588v7.6a17.866,17.866,0,0,1-5.581,1.13,13.562,13.562,0,0,1-9.146-3.586,11.916,11.916,0,0,1-3.914-9.216,12.753,12.753,0,0,1,3.593-8.923,13.185,13.185,0,0,1,9.279-3.942,14.888,14.888,0,0,1,5.79,1.228Z" transform="translate(-71.841 -12.097)" fill="#fff"/>
      <path id="Trazado_6815" data-name="Trazado 6815" d="M294.437,52.407c0,7.89-5.658,13.45-13.478,13.45s-13.478-5.581-13.478-13.45c0-7.374,6.46-12.557,13.478-12.557S294.437,45.033,294.437,52.407Zm-20.364,0a6.9,6.9,0,1,0,13.771,0,6.9,6.9,0,0,0-13.771.035Z" transform="translate(-80.863 -12.022)" fill="#fff"/>
      <path id="Trazado_6816" data-name="Trazado 6816" d="M310.09,41h6.335l11.609,14.9h.063V41h6.348V65.417H328.1L316.487,50.46h-.063V65.417H310.09Z" transform="translate(-93.747 -12.369)" fill="#fff"/>
      <path id="Trazado_6817" data-name="Trazado 6817" d="M379.723,46.991a6.677,6.677,0,0,0-4.186-1.619c-1.158,0-2.714.7-2.714,2.037s1.716,1.974,2.79,2.33l1.619.481c3.4,1,6.014,2.714,6.014,6.662a8.329,8.329,0,0,1-2.518,6.558,10.7,10.7,0,0,1-6.921,2.3,15.055,15.055,0,0,1-8.567-2.791l2.714-5.107a8.724,8.724,0,0,0,5.623,2.518c1.493,0,3.077-.739,3.077-2.456s-2.491-2.393-3.851-2.791c-3.976-1.13-6.593-2.163-6.593-6.886,0-4.939,3.523-8.176,8.406-8.176a16.653,16.653,0,0,1,7.625,2.058Z" transform="translate(-110.422 -12.082)" fill="#fff"/>
      <path id="Trazado_6818" data-name="Trazado 6818" d="M401.952,69.831a3.781,3.781,0,1,1-3.781-3.781,3.781,3.781,0,0,1,3.781,3.781Z" transform="translate(-119.236 -19.944)" fill="#fff"/>
      <path id="Trazado_6819" data-name="Trazado 6819" d="M416.341,61.162l-1.716,4.256H407.9L417.276,41h6.914l9.181,24.417h-6.753l-1.584-4.235Zm4.423-12.613H420.7l-2.651,7.8h5.267Z" transform="translate(-123.321 -12.369)" fill="#fff"/>
      <path id="Trazado_6820" data-name="Trazado 6820" d="M454.716,69.831a3.788,3.788,0,1,1-3.781-3.781,3.788,3.788,0,0,1,3.781,3.781Z" transform="translate(-135.186 -19.944)" fill="#fff"/>
    </g>
  </g>
</svg>
