<svg id="Grupo_799" data-name="Grupo 799" xmlns="http://www.w3.org/2000/svg" width="55.641" height="64.381" viewBox="0 0 55.641 64.381">
  <path id="Trazado_6821" data-name="Trazado 6821" d="M0,201.865V194.66H1.47v2.75H4.264v-2.75h1.47v7.205H4.264v-3.2H1.47v3.2Z" transform="translate(0 -137.676)" fill="#fff"/>
  <path id="Trazado_6822" data-name="Trazado 6822" d="M34.066,195.955H30.387v1.525h3.371v1.249H30.387v1.86h3.846v1.285H28.91V194.66h5.156Z" transform="translate(-21.899 -137.676)" fill="#fff"/>
  <path id="Trazado_6823" data-name="Trazado 6823" d="M58.374,195.9a1.455,1.455,0,0,1,.694.129.912.912,0,0,1,.41.878.81.81,0,0,1-.424.812,1.7,1.7,0,0,1-.728.119h-1.6V195.9Zm.3-1.247H55.25v7.205h1.472v-2.83h1.455a1.141,1.141,0,0,1,.851.243,1.356,1.356,0,0,1,.243.919v.672a3.822,3.822,0,0,0,.16,1.009h1.637v-.182a.606.606,0,0,1-.276-.41,3.619,3.619,0,0,1-.041-.672v-.485a2.425,2.425,0,0,0-.2-1.128,1.329,1.329,0,0,0-.691-.57,1.429,1.429,0,0,0,.844-.7,2.182,2.182,0,0,0,.243-1.009,2.061,2.061,0,0,0-.133-.757,2.251,2.251,0,0,0-.364-.6,1.748,1.748,0,0,0-.65-.517A3.1,3.1,0,0,0,58.674,194.658Z" transform="translate(-41.851 -137.674)" fill="#fff"/>
  <path id="Trazado_6824" data-name="Trazado 6824" d="M83.537,195a3.285,3.285,0,0,1,4.778.3,2.6,2.6,0,0,1,.485,1.341H87.33a2.119,2.119,0,0,0-.364-.778,1.472,1.472,0,0,0-1.181-.468,1.455,1.455,0,0,0-1.256.662,3.262,3.262,0,0,0-.458,1.872,2.842,2.842,0,0,0,.485,1.814,1.5,1.5,0,0,0,1.227.6,1.392,1.392,0,0,0,1.164-.519,2.4,2.4,0,0,0,.366-.839h1.47a3.213,3.213,0,0,1-.97,1.906,2.823,2.823,0,0,1-2.01.728,3.007,3.007,0,0,1-2.386-.994A4.748,4.748,0,0,1,83.537,195Z" transform="translate(-62.53 -137.263)" fill="#fff"/>
  <path id="Trazado_6825" data-name="Trazado 6825" d="M112.435,194.66h1.508v4.419a2.471,2.471,0,0,0,.177,1.084,1.459,1.459,0,0,0,2.365,0,2.507,2.507,0,0,0,.177-1.084V194.66h1.508v4.428a3.684,3.684,0,0,1-.359,1.79,3.271,3.271,0,0,1-5.02,0,3.713,3.713,0,0,1-.356-1.79Z" transform="translate(-85.163 -137.676)" fill="#fff"/>
  <path id="Trazado_6826" data-name="Trazado 6826" d="M141.12,194.66h1.472v5.92h3.558v1.285h-5.03Z" transform="translate(-106.895 -137.676)" fill="#fff"/>
  <path id="Trazado_6827" data-name="Trazado 6827" d="M170.608,195.955h-3.686v1.525h3.371v1.249h-3.371v1.86h3.854v1.285H165.44V194.66H170.6Z" transform="translate(-125.317 -137.676)" fill="#fff"/>
  <path id="Trazado_6828" data-name="Trazado 6828" d="M191.639,198.993a1.436,1.436,0,0,0,.272.728,1.549,1.549,0,0,0,1.249.441,2.668,2.668,0,0,0,.866-.116.837.837,0,0,0,.631-.834.611.611,0,0,0-.313-.548,3.325,3.325,0,0,0-.97-.337l-.764-.172a4.819,4.819,0,0,1-1.555-.553,1.759,1.759,0,0,1-.728-1.559,2.074,2.074,0,0,1,.7-1.605,2.958,2.958,0,0,1,2.066-.64,3.153,3.153,0,0,1,1.94.6,2.154,2.154,0,0,1,.842,1.746h-1.433a1.031,1.031,0,0,0-.572-.919,1.906,1.906,0,0,0-.878-.179,1.676,1.676,0,0,0-.939.243.745.745,0,0,0-.349.652.618.618,0,0,0,.342.577,4.329,4.329,0,0,0,.946.3l1.244.3a3.131,3.131,0,0,1,1.213.524,1.773,1.773,0,0,1,.638,1.47,2.081,2.081,0,0,1-.752,1.642,3.146,3.146,0,0,1-2.127.652,3.44,3.44,0,0,1-2.2-.643,2.127,2.127,0,0,1-.8-1.761Z" transform="translate(-144.074 -137.021)" fill="#fff"/>
  <path id="Trazado_6829" data-name="Trazado 6829" d="M103.023,104.02h-7V83.869l7-5.949Z" transform="translate(-69.419 -54.387)" fill="#fff"/>
  <path id="Trazado_6830" data-name="Trazado 6830" d="M73.392,44.15,47.28,59.753V46.62h-7V80.378h7V66.052Z" transform="translate(-30.511 -30.815)" fill="#fff"/>
  <path id="Trazado_6831" data-name="Trazado 6831" d="M218.447,191.746a1.758,1.758,0,1,1-1.758-1.756A1.758,1.758,0,0,1,218.447,191.746Z" transform="translate(-162.805 -134.139)" fill="#fff"/>
  <path id="Trazado_6832" data-name="Trazado 6832" d="M219.034,192.677a1.477,1.477,0,1,1-1.475-1.477,1.477,1.477,0,0,1,1.475,1.477Z" transform="translate(-163.676 -135.055)" fill="#fff"/>
  <path id="Trazado_6833" data-name="Trazado 6833" d="M219.843,193.808a.4.4,0,0,1,.175.032.243.243,0,0,1,.1.221.2.2,0,0,1-.107.2.421.421,0,0,1-.179.029h-.407v-.485Zm.073-.308h-.856v1.787h.366v-.7h.369a.306.306,0,0,1,.216.058.34.34,0,0,1,.058.228v.167a1.086,1.086,0,0,0,.017.155.907.907,0,0,0,.024.095h.4v-.044a.15.15,0,0,1-.07-.1.856.856,0,0,1,0-.167v-.121a.587.587,0,0,0-.051-.279.332.332,0,0,0-.17-.141.356.356,0,0,0,.209-.172.57.57,0,0,0,.063-.243.451.451,0,0,0-.034-.187.485.485,0,0,0-.09-.15.42.42,0,0,0-.167-.124A.8.8,0,0,0,219.916,193.5Z" transform="translate(-165.933 -136.797)" fill="#fff"/>
  <path id="Trazado_6834" data-name="Trazado 6834" d="M133.759,12.259a12.269,12.269,0,1,0-24.539,0Z" transform="translate(-78.633 0.01)" fill="#fff"/>
</svg>
