<svg xmlns="http://www.w3.org/2000/svg" width="51.336" height="56.321" viewBox="0 0 51.336 56.321">
  <g id="Capa_2" data-name="Capa 2" transform="translate(0)">
    <g id="Layer_1" data-name="Layer 1" transform="translate(0)">
      <path id="Trazado_6835" data-name="Trazado 6835" d="M3.4,193.237a1.736,1.736,0,0,1,.765.127.885.885,0,0,1,.443.877.8.8,0,0,1-.459.813,2.019,2.019,0,0,1-.78.117H1.608v-1.935Zm.319-1.246H0v7.2H1.608v-2.832h1.58a1.359,1.359,0,0,1,.92.229,1.318,1.318,0,0,1,.255.925l.013.673a3.115,3.115,0,0,0,.069.619c.023.1.059.227.11.387H6.339v-.181a.6.6,0,0,1-.3-.413,3.2,3.2,0,0,1-.043-.668v-.487a2.238,2.238,0,0,0-.222-1.129,1.432,1.432,0,0,0-.765-.566,1.529,1.529,0,0,0,.918-.7,2.039,2.039,0,0,0,.275-1.02,1.919,1.919,0,0,0-.143-.765,2.269,2.269,0,0,0-.39-.6,1.935,1.935,0,0,0-.729-.51,3.569,3.569,0,0,0-1.223-.161Z" transform="translate(0 -143.052)" fill="#fff"/>
      <path id="Trazado_6836" data-name="Trazado 6836" d="M31.9,193.649l.981,2.832H30.893ZM28.24,199.2h1.687l.525-1.476h2.86l.51,1.476H35.57L32.836,192H31.011Z" transform="translate(-21.042 -143.062)" fill="#fff"/>
      <path id="Trazado_6837" data-name="Trazado 6837" d="M61.663,192v1.274h-2.33v5.934H57.725v-5.934H55.39V192Z" transform="translate(-41.272 -143.062)" fill="#fff"/>
      <path id="Trazado_6838" data-name="Trazado 6838" d="M84.806,199.2H83.2V192h1.606Z" transform="translate(-61.994 -143.062)" fill="#fff"/>
      <path id="Trazado_6839" data-name="Trazado 6839" d="M99.644,193.781a1.445,1.445,0,0,0-.9-1.02,2.424,2.424,0,0,0-.89-.158,2.008,2.008,0,0,0-1.529.653,2.791,2.791,0,0,0-.6,1.955,2.321,2.321,0,0,0,.652,1.863,2.238,2.238,0,0,0,1.483.545A2.039,2.039,0,0,0,99.2,197.2a1.784,1.784,0,0,0,.642-1.109H98.054v-1.206h3.234v3.849h-1.071l-.173-.9a3.665,3.665,0,0,1-.841.709,3.163,3.163,0,0,1-1.58.362,3.408,3.408,0,0,1-2.523-.986,3.616,3.616,0,0,1-1.02-2.715,3.827,3.827,0,0,1,1.04-2.788,3.686,3.686,0,0,1,2.745-1.053,3.79,3.79,0,0,1,2.381.693,2.549,2.549,0,0,1,1.02,1.738Z" transform="translate(-70.101 -142.582)" fill="#fff"/>
      <path id="Trazado_6840" data-name="Trazado 6840" d="M129.893,193.649l.979,2.832h-1.988ZM126.23,199.2h1.685l.525-1.476H131.3l.51,1.476h1.751l-2.737-7.2H129Z" transform="translate(-94.056 -143.062)" fill="#fff"/>
      <path id="Trazado_6841" data-name="Trazado 6841" d="M158.9,192h1.685l3.1,4.993V192h1.491v7.2h-1.6l-3.181-5.121V199.2H158.9Z" transform="translate(-118.399 -143.062)" fill="#fff"/>
      <path id="Trazado_6842" data-name="Trazado 6842" d="M190.844,186.32a1.8,1.8,0,1,1-.528-1.28A1.807,1.807,0,0,1,190.844,186.32Z" transform="translate(-139.508 -137.481)" fill="#e30613"/>
      <path id="Trazado_6843" data-name="Trazado 6843" d="M191.329,187.189a1.529,1.529,0,1,1-1.529-1.529A1.529,1.529,0,0,1,191.329,187.189Z" transform="translate(-140.283 -138.338)" fill="#fff"/>
      <path id="Trazado_6844" data-name="Trazado 6844" d="M191.627,188.3v.51h.415a.431.431,0,0,0,.186-.031.206.206,0,0,0,.11-.209.24.24,0,0,0-.1-.227.421.421,0,0,0-.181-.031Zm.79-.27a.459.459,0,0,1,.173.13.58.58,0,0,1,.092.153.525.525,0,0,1,.036.194.561.561,0,0,1-.066.255.367.367,0,0,1-.214.178.336.336,0,0,1,.176.145.632.632,0,0,1,.051.288v.122a.838.838,0,0,0,0,.171.153.153,0,0,0,.071.107v.046h-.415c-.013-.043-.02-.074-.025-.1a.809.809,0,0,1-.015-.158v-.173a.354.354,0,0,0-.061-.234A.326.326,0,0,0,192,189.1h-.377v.724h-.38V188h.882A.816.816,0,0,1,192.418,188.031Z" transform="translate(-142.496 -140.077)" fill="#e31f21"/>
      <path id="Trazado_6845" data-name="Trazado 6845" d="M23.33,42.232V25.437H24.5a5.607,5.607,0,0,1,3.206.951,9.979,9.979,0,0,1,2.368,3.2l7.02,12.645h14.7L45.433,30.27a17.366,17.366,0,0,0-1.863-2.735A7.538,7.538,0,0,0,41.531,25.5a12.225,12.225,0,0,0-3.393-1.529,16.533,16.533,0,0,0,4.588-1.634A11.6,11.6,0,0,0,46.858,18.3a11.212,11.212,0,0,0,1.5-5.908A11.209,11.209,0,0,0,46.4,5.7,9.856,9.856,0,0,0,41.256,1.94,32.044,32.044,0,0,0,32.021.92H10.3V42.232Z" transform="translate(-7.675 -0.686)" fill="#fff"/>
      <path id="Trazado_6846" data-name="Trazado 6846" d="M27.342,5.268,27.8.153,28.092,5.3,29.025.153,28.836,5.4,30.248,0l-.681,5.569L31.474,0,30.281,5.8,33.006.153,30.972,6.1,34.385,0,31.632,6.451l4.435-6.3L32.259,6.867,37.752.459,32.845,7.333,39.59.765l-6.2,7.088,7.886-6.474L33.883,8.416,42.959,2.3,34.324,9.025,44.491,3.37l-9.782,6.3L45.715,4.746l-10.68,5.6,11.89-4.06L35.3,11.049,47.5,8.07,35.5,11.773,47.922,9.9,35.631,12.512l12.382-.721L35.7,13.259l12.466.37L35.7,14.011l11.7,1.608L35.685,14.75l11.166,2.618L35.5,15.5l9.91,3.186L35.3,16.221l11.625,4.764-11.89-4.063,8.077,4.211-8.4-3.533,6.719,4.453-7.1-3.808,5.266,4.42-5.707-3.813,10.654,9.765-11.149-9.2,14.077,15.25L32.845,19.934,49.614,41.5,32.259,20.4l13.646,21.29L31.632,20.816,42.195,41.694,30.972,21.173l8.49,20.521L30.281,21.466,36.34,40.718,29.568,21.7l1.891,10.231L28.836,21.867l.28,5.967-1.025-5.865-.148,4.3L27.342,22l-.614,3.265-.138-3.3-.782,2.839.041-2.941L21.113,41.694l4-19.993-6.54,19.8L24.4,21.466,15.646,41.694,23.71,21.173l-10.8,20.521L23.05,20.816,9.985,40.521,22.423,20.4,9.883,35.681,21.837,19.934,9.791,31.738l11.5-12.321-11.113,9L20.8,18.851,9.883,26.034l10.476-7.789-10.476,5.8L19.974,17.6,9.883,22.053l9.765-5.131L9.73,20.215l9.655-3.994-9.5,2.156,9.3-2.88-9.3,1.2,9.168-1.935-9.321.4,9.252-1.15-9.1-.229,9.1-.523L9.883,12.1l9.168.415L9.883,10.565l9.3,1.208-9.3-2.89,9.5,2.167-9.5-4,9.765,3.3L10.036,5.36l9.938,4.31L9.883,3.064,20.359,9.025,10.036.918,20.8,8.416,12.027.306l9.268,7.547L14.323.153l7.514,7.18L16.62.306l5.8,6.561L18.457.306,23.05,6.451,20.142.306,23.71,6.1,21.674.153,24.4,5.8,22.9.153l2.215,5.416L24.276.306l1.573,5.1-.5-5.1,1.241,5-.018-5Z" transform="translate(-7.25)" fill="#ce2027"/>
      <path id="Trazado_6847" data-name="Trazado 6847" d="M63.993,30.477a7.647,7.647,0,1,1-7.647-7.647A7.647,7.647,0,0,1,63.993,30.477Z" transform="translate(-36.287 -17.011)" fill="#fff"/>
    </g>
  </g>
</svg>
