<svg xmlns="http://www.w3.org/2000/svg" width="259.886" height="59.402" viewBox="0 0 259.886 59.402">
  <g id="Capa_2" data-name="Capa 2" transform="translate(0.018 0.039)">
    <g id="Layer_1" data-name="Layer 1" transform="translate(-0.018 -0.039)">
      <path id="Trazado_6794" data-name="Trazado 6794" d="M64.031,45.751S40.4,4.426,40.375,4.4a8.511,8.511,0,0,0-14.951,0S.764,47.186.764,47.288A8.511,8.511,0,0,0,8.5,59.363H57.165a8.511,8.511,0,0,0,6.849-13.618ZM57.04,53.592H8.668a2.99,2.99,0,0,1-3-2.985,2.928,2.928,0,0,1,.284-1.26c0-.04,24.291-42.057,24.3-42.062a2.99,2.99,0,0,1,5.237,0L48.047,29.069H36.131L32.794,23.2l-11,18.923H43.683l-2.406-4.006H29.208l3.024-5.407H50.14c4.976,8.619,9.294,16.115,9.294,16.115a2.99,2.99,0,0,1-2.394,4.772Z" transform="translate(0.018 0.039)" fill="#ce2027"/>
      <path id="Trazado_6795" data-name="Trazado 6795" d="M138.394,20.384v1.311h2.27v1.7h-2.27v1.339h2.4v1.7H136.38V18.67h4.414v1.7Z" transform="translate(-58.986 -8.054)" fill="#6e6d6e"/>
      <path id="Trazado_6796" data-name="Trazado 6796" d="M152.273,20.508A2.133,2.133,0,0,0,150.934,20c-.369,0-.862.216-.862.647s.567.63.9.738l.511.159c1.084.318,1.918.862,1.918,2.116a2.627,2.627,0,0,1-.806,2.088,3.4,3.4,0,0,1-2.2.732,4.8,4.8,0,0,1-2.729-.885l.868-1.623a2.763,2.763,0,0,0,1.787.8c.477,0,.982-.238.982-.783s-.794-.76-1.226-.885c-1.265-.357-2.1-.687-2.1-2.19a2.519,2.519,0,0,1,2.673-2.6,5.294,5.294,0,0,1,2.429.641Z" transform="translate(-63.865 -7.895)" fill="#6e6d6e"/>
      <path id="Trazado_6797" data-name="Trazado 6797" d="M164.1,26.441h-2.014V20.392H160.42v-1.7h5.351v1.7H164.1Z" transform="translate(-69.385 -8.063)" fill="#6e6d6e"/>
      <path id="Trazado_6798" data-name="Trazado 6798" d="M173.69,25.112l-.533,1.35H171l2.985-7.762h2.2l2.922,7.762h-2.15l-.488-1.35ZM175.1,21.1h0l-.834,2.468h1.7Z" transform="translate(-73.962 -8.067)" fill="#6e6d6e"/>
      <path id="Trazado_6799" data-name="Trazado 6799" d="M188.5,26.432V18.67h2.882c1.379,0,2.309.539,2.309,2.02a1.606,1.606,0,0,1-.857,1.572h0a1.727,1.727,0,0,1,1.583,1.975c0,1.628-1.39,2.162-2.837,2.162Zm2.02-4.738h.227c.533,0,1.089-.091,1.089-.749s-.63-.749-1.175-.749h-.142Zm0,3.172h.255c.6,0,1.606.028,1.606-.823s-1-.845-1.657-.845h-.2Z" transform="translate(-81.532 -8.054)" fill="#6e6d6e"/>
      <path id="Trazado_6800" data-name="Trazado 6800" d="M204.814,24.724h2.417v1.7H202.8V18.67h2.014Z" transform="translate(-87.718 -8.054)" fill="#6e6d6e"/>
      <path id="Trazado_6801" data-name="Trazado 6801" d="M215.83,20.384v1.311h2.27v1.7h-2.27v1.339h2.394v1.7H213.81V18.67h4.414v1.7Z" transform="translate(-92.481 -8.054)" fill="#6e6d6e"/>
      <path id="Trazado_6802" data-name="Trazado 6802" d="M231.044,21.127a2.179,2.179,0,0,0-1.77-.851,2.043,2.043,0,0,0-2.065,2.151,2.009,2.009,0,0,0,2.1,2.111,2.326,2.326,0,0,0,1.736-.823v2.417a5.748,5.748,0,0,1-1.782.357,4.318,4.318,0,0,1-2.911-1.135,3.807,3.807,0,0,1-1.243-2.934,4.063,4.063,0,0,1,1.135-2.837A4.222,4.222,0,0,1,229.2,18.33a4.772,4.772,0,0,1,1.838.392Z" transform="translate(-97.368 -7.907)" fill="#6e6d6e"/>
      <path id="Trazado_6803" data-name="Trazado 6803" d="M242,26.432h-2V18.67h2.02Z" transform="translate(-103.81 -8.054)" fill="#6e6d6e"/>
      <path id="Trazado_6804" data-name="Trazado 6804" d="M248.484,18.67h2l1.555,4.159,1.668-4.148h2.009l1.169,7.762h-2.014l-.567-4.466h0l-1.867,4.466h-.817l-1.782-4.466h0l-.647,4.466h-2Z" transform="translate(-106.921 -8.054)" fill="#6e6d6e"/>
      <path id="Trazado_6805" data-name="Trazado 6805" d="M270.026,26.432H268V18.67h2.014Z" transform="translate(-115.923 -8.054)" fill="#6e6d6e"/>
      <path id="Trazado_6806" data-name="Trazado 6806" d="M278.043,20.384v1.311h2.27v1.7h-2.27v1.339h2.395v1.7H276V18.67h4.414v1.7Z" transform="translate(-119.383 -8.054)" fill="#6e6d6e"/>
      <path id="Trazado_6807" data-name="Trazado 6807" d="M288.17,18.67h2.02l3.694,4.727h0V18.67H295.9v7.762h-2.014l-3.671-4.738h0v4.755h-2.02Z" transform="translate(-124.648 -8.054)" fill="#6e6d6e"/>
      <path id="Trazado_6808" data-name="Trazado 6808" d="M308.783,26.441h-2.037V20.392H305.1v-1.7h5.351v1.7h-1.668Z" transform="translate(-131.972 -8.063)" fill="#6e6d6e"/>
      <path id="Trazado_6809" data-name="Trazado 6809" d="M325.585,22.232a4.3,4.3,0,0,1-8.585,0,4.305,4.305,0,0,1,8.585,0Zm-6.486,0a2.2,2.2,0,1,0,2.193-2.084A2.2,2.2,0,0,0,319.1,22.232Z" transform="translate(-137.119 -7.877)" fill="#6e6d6e"/>
      <path id="Trazado_6810" data-name="Trazado 6810" d="M339.619,20.508A2.145,2.145,0,0,0,338.28,20c-.374,0-.868.216-.868.647s.567.63.9.738l.516.159c1.078.318,1.912.862,1.912,2.116a2.627,2.627,0,0,1-.8,2.088,3.4,3.4,0,0,1-2.2.732A4.789,4.789,0,0,1,335,25.592l.862-1.623a2.763,2.763,0,0,0,1.793.8c.471,0,.976-.238.976-.783s-.794-.749-1.22-.885c-1.265-.357-2.1-.687-2.1-2.19a2.519,2.519,0,0,1,2.678-2.6,5.311,5.311,0,0,1,2.429.641Z" transform="translate(-144.906 -7.894)" fill="#6e6d6e"/>
      <path id="Trazado_6811" data-name="Trazado 6811" d="M157.163,49.283c-.051,2.894-.261,5.362-2.026,7.836a9.578,9.578,0,0,1-8.176,3.892c-6.242,0-10.571-4.233-10.571-10.469,0-6.44,4.369-10.673,10.781-10.673a9.207,9.207,0,0,1,8.937,5.549l-4.891,2.048a4.483,4.483,0,0,0-4.284-3.155c-3.4,0-5.152,3.234-5.152,6.242s1.838,6.208,5.232,6.208c2.236,0,3.972-1.135,4.153-3.444H146.95V49.283Z" transform="translate(-58.99 -17.225)" fill="#ce2027"/>
      <path id="Trazado_6812" data-name="Trazado 6812" d="M179.017,57.4,177.65,60.86h-5.47L179.806,41h5.623L192.9,60.86h-5.5l-1.288-3.444Zm3.6-10.259h-.051l-2.128,6.344h4.284Z" transform="translate(-74.472 -17.714)" fill="#ce2027"/>
      <path id="Trazado_6813" data-name="Trazado 6813" d="M221.605,45.7a5.425,5.425,0,0,0-3.4-1.316c-.948,0-2.213.567-2.213,1.657s1.4,1.606,2.27,1.9l1.316.392c2.763.817,4.891,2.207,4.891,5.419a6.755,6.755,0,0,1-2.048,5.334,8.7,8.7,0,0,1-5.629,1.867,12.245,12.245,0,0,1-6.968-2.27l2.207-4.153a7.1,7.1,0,0,0,4.573,2.048c1.209,0,2.5-.6,2.5-2s-2.026-1.946-3.132-2.27c-3.234-.919-5.362-1.759-5.362-5.6,0-4.017,2.865-6.65,6.837-6.65a13.544,13.544,0,0,1,6.208,1.674Z" transform="translate(-90.755 -17.303)" fill="#ce2027"/>
      <path id="Trazado_6814" data-name="Trazado 6814" d="M252.825,47.278a5.589,5.589,0,0,0-4.539-2.179,5.443,5.443,0,0,0,.079,10.883,5.924,5.924,0,0,0,4.443-2.105v6.179a14.531,14.531,0,0,1-4.539.919,11.03,11.03,0,0,1-7.439-2.917,9.691,9.691,0,0,1-3.183-7.5,10.372,10.372,0,0,1,2.922-7.257,10.724,10.724,0,0,1,7.547-3.206,12.109,12.109,0,0,1,4.71,1Z" transform="translate(-102.79 -17.324)" fill="#ce2027"/>
      <path id="Trazado_6815" data-name="Trazado 6815" d="M289.4,50.063a10.963,10.963,0,0,1-21.925,0c0-6,5.254-10.213,10.963-10.213S289.4,44.066,289.4,50.063Zm-16.563,0a5.609,5.609,0,1,0,11.2,0,5.612,5.612,0,0,0-11.2.028Z" transform="translate(-115.698 -17.216)" fill="#ce2027"/>
      <path id="Trazado_6816" data-name="Trazado 6816" d="M310.09,41h5.152l9.442,12.12h.051V41H329.9V60.86h-5.163l-9.442-12.165h-.051V60.86H310.09Z" transform="translate(-134.13 -17.714)" fill="#ce2027"/>
      <path id="Trazado_6817" data-name="Trazado 6817" d="M377.02,45.7a5.43,5.43,0,0,0-3.4-1.316c-.942,0-2.207.567-2.207,1.657s1.4,1.606,2.27,1.9l1.316.392c2.763.817,4.891,2.207,4.891,5.419a6.774,6.774,0,0,1-2.048,5.334,8.7,8.7,0,0,1-5.629,1.867,12.245,12.245,0,0,1-6.968-2.27l2.207-4.153a7.1,7.1,0,0,0,4.573,2.048c1.214,0,2.5-.6,2.5-2s-2.026-1.946-3.132-2.27c-3.234-.919-5.362-1.759-5.362-5.6,0-4.017,2.865-6.65,6.837-6.65a13.544,13.544,0,0,1,6.2,1.674Z" transform="translate(-157.987 -17.303)" fill="#ce2027"/>
      <path id="Trazado_6818" data-name="Trazado 6818" d="M400.541,69.125a3.075,3.075,0,1,1-3.075-3.075,3.075,3.075,0,0,1,3.075,3.075Z" transform="translate(-170.597 -28.55)" fill="#ce2027"/>
      <path id="Trazado_6819" data-name="Trazado 6819" d="M414.766,57.4l-1.4,3.461H407.9L415.526,41h5.623l7.467,19.86h-5.493l-1.288-3.444Zm3.6-10.259h-.051l-2.156,6.344h4.284Z" transform="translate(-176.441 -17.714)" fill="#ce2027"/>
      <path id="Trazado_6820" data-name="Trazado 6820" d="M453.3,69.125a3.081,3.081,0,1,1-3.075-3.075,3.081,3.081,0,0,1,3.075,3.075Z" transform="translate(-193.416 -28.55)" fill="#ce2027"/>
    </g>
  </g>
</svg>
